<svg xmlns="http://www.w3.org/2000/svg" style="width:18;height:12;vertical-align:middle;margin-right:4px" width="16" height="16" class="icon" p-id="9794" t="1580286583198" version="1.1" viewBox="0 0 1536 1024"><path fill="#FFF" d="M0 0h1536v1024H0z" p-id="9795"/><path fill="#E94B35" d="M768 0h768v80H768zM768 314.656h768v80H768zM0 629.344v80h1536v-80zM768 157.344h768v80H768zM768 472v80h768v-80zM0 786.656h1536v80H0zM0 944h1536V1024H0z" p-id="9796"/><path fill="#227FBB" d="M0 0h768v552H0z" p-id="9797"/><path fill="#FFF" d="M64 96l-18.816 9.888 3.584-20.928-15.2-14.848 21.024-3.072L64 48l9.408 19.04 21.024 3.072-15.2 14.848 3.584 20.928zM192 96l-18.816 9.888 3.584-20.928-15.2-14.848 21.024-3.072L192 48l9.408 19.04 21.024 3.072-15.2 14.848 3.584 20.928zM320 96l-18.816 9.888 3.584-20.928-15.2-14.848 21.024-3.072L320 48l9.408 19.04 21.024 3.072-15.2 14.848 3.584 20.928zM448 96l-18.816 9.888 3.584-20.928-15.2-14.848 21.024-3.072L448 48l9.408 19.04 21.024 3.072-15.2 14.848 3.584 20.928zM576 96l-18.816 9.888 3.584-20.928-15.2-14.848 21.024-3.072L576 48l9.408 19.04 21.024 3.072-15.2 14.848 3.584 20.928z" p-id="9798"/><path fill="#FFF" d="M576 96l-18.816 9.888 3.584-20.928-15.2-14.848 21.024-3.072L576 48l9.408 19.04 21.024 3.072-15.2 14.848 3.584 20.928zM640 192l-18.816 9.888 3.584-20.928-15.2-14.848 21.024-3.072L640 144l9.408 19.04 21.024 3.072-15.2 14.848 3.584 20.928zM128 192l-18.816 9.888 3.584-20.928-15.2-14.848 21.024-3.072L128 144l9.408 19.04 21.024 3.072-15.2 14.848 3.584 20.928zM256 192l-18.816 9.888 3.584-20.928-15.2-14.848 21.024-3.072L256 144l9.408 19.04 21.024 3.072-15.2 14.848 3.584 20.928zM384 192l-18.816 9.888 3.584-20.928-15.2-14.848 21.024-3.072L384 144l9.408 19.04 21.024 3.072-15.2 14.848 3.584 20.928zM512 192l-18.816 9.888 3.584-20.928-15.2-14.848 21.024-3.072L512 144l9.408 19.04 21.024 3.072-15.2 14.848 3.584 20.928zM704 96l-18.816 9.888 3.584-20.928-15.2-14.848 21.024-3.072L704 48l9.408 19.04 21.024 3.072-15.2 14.848 3.584 20.928zM64 288l-18.816 9.888 3.584-20.928-15.2-14.848 21.024-3.072L64 240l9.408 19.04 21.024 3.072-15.2 14.848 3.584 20.928zM192 288l-18.816 9.888 3.584-20.928-15.2-14.848 21.024-3.072L192 240l9.408 19.04 21.024 3.072-15.2 14.848 3.584 20.928zM320 288l-18.816 9.888 3.584-20.928-15.2-14.848 21.024-3.072L320 240l9.408 19.04 21.024 3.072-15.2 14.848 3.584 20.928zM448 288l-18.816 9.888 3.584-20.928-15.2-14.848 21.024-3.072L448 240l9.408 19.04 21.024 3.072-15.2 14.848 3.584 20.928zM576 288l-18.816 9.888 3.584-20.928-15.2-14.848 21.024-3.072L576 240l9.408 19.04 21.024 3.072-15.2 14.848 3.584 20.928z" p-id="9799"/><path fill="#FFF" d="M576 288l-18.816 9.888 3.584-20.928-15.2-14.848 21.024-3.072L576 240l9.408 19.04 21.024 3.072-15.2 14.848 3.584 20.928zM640 384l-18.816 9.888 3.584-20.928-15.2-14.848 21.024-3.072L640 336l9.408 19.04 21.024 3.072-15.2 14.848 3.584 20.928zM128 384l-18.816 9.888 3.584-20.928-15.2-14.848 21.024-3.072L128 336l9.408 19.04 21.024 3.072-15.2 14.848 3.584 20.928zM256 384l-18.816 9.888 3.584-20.928-15.2-14.848 21.024-3.072L256 336l9.408 19.04 21.024 3.072-15.2 14.848 3.584 20.928zM384 384l-18.816 9.888 3.584-20.928-15.2-14.848 21.024-3.072L384 336l9.408 19.04 21.024 3.072-15.2 14.848 3.584 20.928zM512 384l-18.816 9.888 3.584-20.928-15.2-14.848 21.024-3.072L512 336l9.408 19.04 21.024 3.072-15.2 14.848 3.584 20.928zM704 288l-18.816 9.888 3.584-20.928-15.2-14.848 21.024-3.072L704 240l9.408 19.04 21.024 3.072-15.2 14.848 3.584 20.928zM64 480l-18.816 9.888 3.584-20.928-15.2-14.848 21.024-3.072L64 432l9.408 19.04 21.024 3.072-15.2 14.848 3.584 20.928zM192 480l-18.816 9.888 3.584-20.928-15.2-14.848 21.024-3.072L192 432l9.408 19.04 21.024 3.072-15.2 14.848 3.584 20.928zM320 480l-18.816 9.888 3.584-20.928-15.2-14.848 21.024-3.072L320 432l9.408 19.04 21.024 3.072-15.2 14.848 3.584 20.928zM448 480l-18.816 9.888 3.584-20.928-15.2-14.848 21.024-3.072L448 432l9.408 19.04 21.024 3.072-15.2 14.848 3.584 20.928zM576 480l-18.816 9.888 3.584-20.928-15.2-14.848 21.024-3.072L576 432l9.408 19.04 21.024 3.072-15.2 14.848 3.584 20.928z" p-id="9800"/><path fill="#FFF" d="M576 480l-18.816 9.888 3.584-20.928-15.2-14.848 21.024-3.072L576 432l9.408 19.04 21.024 3.072-15.2 14.848 3.584 20.928zM704 480l-18.816 9.888 3.584-20.928-15.2-14.848 21.024-3.072L704 432l9.408 19.04 21.024 3.072-15.2 14.848 3.584 20.928z" p-id="9801"/></svg>