<svg xmlns="http://www.w3.org/2000/svg" class="icon" p-id="5900" t="1580285611047" version="1.1" viewBox="0 0 1536 1024" style="width:18;height:12;vertical-align:middle;margin-right:4px"><path fill="#E94B35" d="M0 0h1536v1024H0z" p-id="5901"/><path fill="#F2C500" d="M304 496l-141.056 98.176 49.76-164.48-136.96-103.872 171.84-3.52L304 160l56.416 162.336 171.84 3.52-136.96 103.808 49.76 164.48zM567.232 216.064l-44.288 11.712 27.456-36.672-24.832-38.496 43.36 14.784 28.96-35.52-0.64 45.824 42.72 16.544-43.808 13.536-2.528 45.76zM716.8 339.04l-19.52 41.472-10.4-44.608-45.472-5.76 39.2-23.68L672 261.44l34.688 29.952 40.128-22.08-17.76 42.24 33.408 31.36zM699.552 508.32l-41.6 19.232 20.704-40.896-31.168-33.6 45.28 7.04 22.336-40 7.296 45.216 44.992 8.896-40.8 20.896 5.44 45.504zM567.232 632.064l-44.288 11.712 27.456-36.672-24.832-38.496 43.36 14.784 28.96-35.52-0.64 45.824 42.72 16.544-43.808 13.536-2.528 45.76z" class="selected" data-spm-anchor-id="a313x.7781069.0.i19" p-id="5902"/></svg>